<!-- icon666.com - MILLIONS vector ICONS FREE --><svg id="Capa_1" enable-background="new 0 0 512 512" viewBox="0 0 512 512" xmlns="http://www.w3.org/2000/svg"><path d="m497 0h-482c-8.284 0-15 6.716-15 15v482c0 8.284 6.716 15 15 15h482c8.284 0 15-6.716 15-15v-482c0-8.284-6.716-15-15-15zm-15 60h-30v-30h30zm-90 0v-30h30v30zm-60 0v-30h30v30zm-30-30v30h-272v-30zm-272 452v-392h452v392z"></path><path d="m181 166c0-24.813-20.187-45-45-45s-45 20.187-45 45 20.187 45 45 45 45-20.187 45-45zm-45 15c-8.271 0-15-6.729-15-15s6.729-15 15-15 15 6.729 15 15-6.729 15-15 15z"></path><path d="m75 301h121c8.284 0 15-6.716 15-15v-30c0-24.813-20.187-45-45-45h-60c-24.859 0-46 20.091-46 45v30c0 8.284 6.716 15 15 15zm15-45c0-7.991 7.477-15 16-15h60c8.271 0 15 6.729 15 15v15h-91z"></path><path d="m437 271h-181c-8.284 0-15 6.716-15 15s6.716 15 15 15h181c8.284 0 15-6.716 15-15s-6.716-15-15-15z"></path><path d="m437 331h-362c-8.284 0-15 6.716-15 15s6.716 15 15 15h362c8.284 0 15-6.716 15-15s-6.716-15-15-15z"></path><path d="m437 391h-362c-8.284 0-15 6.716-15 15s6.716 15 15 15h362c8.284 0 15-6.716 15-15s-6.716-15-15-15z"></path><path d="m437 211h-181c-8.284 0-15 6.716-15 15s6.716 15 15 15h181c8.284 0 15-6.716 15-15s-6.716-15-15-15z"></path><circle cx="287" cy="166" r="15"></circle><circle cx="347" cy="166" r="15"></circle><circle cx="407" cy="166" r="15"></circle></svg>