<svg width="24" height="24" viewBox="0 0 24 24" fill="none" xmlns="http://www.w3.org/2000/svg">
<g clip-path="url(#clip0_1056_1570)">
<path d="M2.07988 10.391C1.77496 10.305 1.50562 10.1237 1.31136 9.87348C1.1171 9.6233 1.00813 9.31748 1.00044 9.00087C0.992745 8.68426 1.08673 8.37351 1.26862 8.1142C1.4505 7.85488 1.71071 7.66064 2.0111 7.55996L22.0193 1.03685C22.1504 0.994141 22.2907 0.988436 22.4248 1.02036C22.5589 1.05229 22.6816 1.12061 22.7793 1.2178C22.8771 1.31498 22.9461 1.43725 22.9787 1.57113C23.0113 1.70502 23.0064 1.84531 22.9644 1.97655L16.4438 21.9873C16.3435 22.2881 16.1493 22.5488 15.8898 22.731C15.6302 22.9132 15.319 23.0074 15.0019 22.9996C14.6849 22.9917 14.3787 22.8824 14.1284 22.6876C13.8781 22.4929 13.697 22.2229 13.6117 21.9176L11.3727 12.6192L2.07988 10.391Z" stroke="black" stroke-width="1.5" stroke-linecap="round" stroke-linejoin="round"/>
<path d="M22 2L11 13" stroke="black" stroke-width="1.5" stroke-linecap="round" stroke-linejoin="round"/>
</g>
<defs>
<clipPath id="clip0_1056_1570">
<rect width="24" height="24" fill="white"/>
</clipPath>
</defs>
</svg>
