<!-- icon666.com - MILLIONS vector ICONS FREE --><svg version="1.1" id="Capa_1" xmlns="http://www.w3.org/2000/svg" xmlns:xlink="http://www.w3.org/1999/xlink" x="0px" y="0px" viewBox="0 0 511.999 511.999" style="enable-background:new 0 0 511.999 511.999;" xml:space="preserve"><g><g><path d="M476.907,311.982c-5.076-10.142-10.872-19.757-16.478-29.055c-5.669-9.402-11.022-18.282-15.633-27.575 c-10.254-20.675-18.377-43.957-24.833-71.178c-11.387-48.011-36.474-71.654-55.514-83.035 c-20.895-12.49-39.081-13.371-41.085-13.428l-0.443-0.014l-0.443,0.014c-2.005,0.059-20.19,0.939-41.085,13.428 c-7.883,4.712-16.802,11.535-25.357,21.311c-17.569-20.082-37.59-28.564-51.052-32.137c-0.002-16.927,3.031-44.079,18.616-46.677 l-4.927-29.56c-7.716,1.286-18.932,5.272-28.069,16.955C169.163,4.938,125.159-4.774,59.719,2.178L39.716,4.303l7.765,18.558 c22.388,53.508,48.113,86.183,76.628,97.455c-12.812,13.912-25.048,34.244-32.072,63.856 c-6.452,27.211-14.576,50.493-24.835,71.179c-4.611,9.299-9.968,18.184-15.641,27.593c-5.603,9.293-11.397,18.901-16.471,29.039 c-9.418,18.826-14.026,42.926-13.326,69.701c1.333,50.406,28.512,93.655,74.568,118.657l0.682,0.371l0.717,0.298 c1.215,0.505,29.973,12.298,59.93,10.866h62.842c1.71,0.081,3.442,0.122,5.196,0.122c9.524,0,19.686-1.209,30.31-3.584 c10.273,2.284,22.77,4.066,35.49,3.462h62.846c1.699,0.08,3.397,0.119,5.084,0.119c28.065-0.001,53.702-10.514,54.846-10.989 l0.716-0.298l0.682-0.371c46.059-25.003,73.236-68.251,74.562-118.655C490.937,354.915,486.329,330.812,476.907,311.982z M83.706,30.334c42.756-2.1,72.327,4.964,84.306,20.393c9.039,11.641,6.415,26.548,4.882,32.384 c-4.378,4.153-16.179,13.627-30.736,11.308C122.866,91.345,102.434,68.808,83.706,30.334z M157.29,481.911l-0.767,0.02 c-21.081,1.083-42.72-6.821-46.661-8.342c-35.932-19.817-57.109-53.554-58.143-92.691c-0.572-21.871,2.944-41.064,10.168-55.503 c4.546-9.083,9.786-17.775,15.335-26.977c5.735-9.513,11.666-19.349,16.826-29.751c11.283-22.75,20.163-48.127,27.147-77.579 c15.872-66.909,61.863-72.889,67.877-73.384c4.273,0.358,29.844,3.63,49.507,30.926c-5.047,10.04-9.439,21.787-12.701,35.544 c-6.457,27.224-14.58,50.506-24.834,71.178c-4.609,9.295-9.964,18.175-15.633,27.578c-5.605,9.297-11.402,18.911-16.476,29.052 c-9.422,18.834-14.03,42.936-13.327,69.702c1.043,39.632,18.076,74.834,47.694,100.226H157.29z M460.276,380.896 c-1.029,39.135-22.205,72.87-58.133,92.687c-3.999,1.543-25.592,9.441-46.665,8.347l-0.384-0.02h-63.963l-0.767,0.02 c-21.091,1.081-42.724-6.826-46.661-8.345c-35.932-19.816-57.107-53.551-58.137-92.689c-0.575-21.865,2.941-41.058,10.17-55.505 c4.546-9.087,9.788-17.783,15.338-26.988c5.733-9.508,11.66-19.338,16.817-29.737c11.278-22.735,20.157-48.111,27.146-77.577 c15.913-67.086,62.108-72.926,67.928-73.395c5.287,0.419,51.865,6.042,67.84,73.395c6.987,29.462,15.867,54.838,27.146,77.577 c5.156,10.397,11.084,20.227,16.815,29.733c5.551,9.207,10.794,17.903,15.34,26.991h0.001 C457.334,339.836,460.851,359.03,460.276,380.896z"></path></g></g><g><g><rect x="281.742" y="291.973" width="29.968" height="35.332"></rect></g></g><g><g><rect x="334.126" y="291.973" width="29.968" height="35.332"></rect></g></g></svg>