<!-- icon666.com - MILLIONS vector ICONS FREE --><svg version="1.1" id="Capa_1" xmlns="http://www.w3.org/2000/svg" xmlns:xlink="http://www.w3.org/1999/xlink" x="0px" y="0px" viewBox="0 0 512.001 512.001" style="enable-background:new 0 0 512.001 512.001;" xml:space="preserve"><g><g><path d="M172.352,282.086c5.733-9.509,11.148-18.49,15.675-27.616c10.162-20.488,18.238-43.673,24.692-70.881 c7.942-33.484,21.922-56.687,36.653-72.704c-14.411-12.292-29.179-18.2-39.838-21.029c-0.002-16.945,3.033-44.127,18.636-46.728 l-4.932-29.592c-11.577,1.929-31.028,9.913-39.536,40.855c-4.735-28.746-32.696-64.054-146.64-51.945 c37.884,90.545,75.899,109.044,103.293,106.401c-16.642,13.394-34.713,36.27-43.894,74.973 c-6.459,27.24-14.592,50.548-24.862,71.256c-4.616,9.309-9.98,18.204-15.658,27.623c-5.609,9.303-11.409,18.922-16.489,29.071 c-9.428,18.846-14.041,42.973-13.34,69.777c1.334,50.461,28.543,93.757,74.65,118.786l0.683,0.371l0.718,0.298 c1.216,0.506,30.006,12.312,59.995,10.878h37.46c-14.382-11.307-26.652-24.663-36.152-39.52 c-15.26-23.864-23.385-50.72-24.151-79.824c-0.805-30.607,4.366-57.275,15.368-79.265 C160.21,302.224,166.383,291.986,172.352,282.086z"></path></g></g><g><g><path d="M473.683,326.695c-10.107-20.201-23.351-38.652-33.39-58.894c-12.155-24.507-20.703-50.712-27.007-77.288 c-20.479-86.341-85.689-88.268-85.689-88.268s-65.21,1.927-85.689,88.268c-6.303,26.575-14.851,52.781-27.006,77.288 c-10.04,20.242-23.283,38.693-33.39,58.894c-9.833,19.653-12.781,43.235-12.208,65.053c1.26,47.908,27.454,87.285,69.342,110.024 c0,0,24.605,10.227,50.961,10.227c1.648,0,3.301-0.04,4.957-0.125h66.066c1.654,0.085,3.311,0.125,4.957,0.125 c26.357,0,50.961-10.227,50.961-10.227c41.888-22.74,68.082-62.116,69.342-110.024 C486.464,369.93,483.515,346.348,473.683,326.695z M316.379,327.101h-30v-35.367h30V327.101z M368.816,327.101h-30v-35.367h30 V327.101z"></path></g></g></svg>